HIERARCHY
ROOT Hips
{
	OFFSET 0.000000 0.000000 0.000000
	CHANNELS 6 Xposition Yposition Zposition Zrotation Yrotation Xrotation 
	JOINT LHipJoint
	{
		OFFSET 0.000000 0.000000 0.000000
		CHANNELS 3 Zrotation Yrotation Xrotation
		JOINT LeftUpLeg
		{
			OFFSET 1.363060 -1.794630 0.839290
			CHANNELS 3 Zrotation Yrotation Xrotation
			JOINT LeftLeg
			{
				OFFSET 2.448110 -6.726130 0.000000
				CHANNELS 3 Zrotation Yrotation Xrotation
				JOINT LeftFoot
				{
					OFFSET 2.562200 -7.039590 0.000000
					CHANNELS 3 Zrotation Yrotation Xrotation
					JOINT LeftToeBase
					{
						OFFSET 0.157640 -0.433110 2.322550
						CHANNELS 3 Zrotation Yrotation Xrotation
						End Site
						{
							OFFSET 0.000000 0.000000 0.000000
						}
					}
				}
			}
		}
	}
	JOINT RHipJoint
	{
		OFFSET 0.000000 0.000000 0.000000
		CHANNELS 3 Zrotation Yrotation Xrotation
		JOINT RightUpLeg
		{
			OFFSET -1.305520 -1.794630 0.839290
			CHANNELS 3 Zrotation Yrotation Xrotation
			JOINT RightLeg
			{
				OFFSET -2.542530 -6.985550 0.000000
				CHANNELS 3 Zrotation Yrotation Xrotation
				JOINT RightFoot
				{
					OFFSET -2.568260 -7.056230 0.000000
					CHANNELS 3 Zrotation Yrotation Xrotation
					JOINT RightToeBase
					{
						OFFSET -0.164730 -0.452590 2.363150
						CHANNELS 3 Zrotation Yrotation Xrotation
						End Site
						{
							OFFSET 0.000000 0.000000 0.000000
						}
					}
				}
			}
		}
	}
}
MOTION
Frames: 25
Frame Time: 0.008333
4.972592 17.373621 0.906503 -154.555392 -82.476768 163.408475 -10.784482 3.727334 2.256475 -4.887703 20.012495 -12.914694 -2.683334 -1.211087 -2.514727 0.486675 3.700401 0.873105 0.655000 0.000000 -29.559400 9.552496 -2.260291 4.853426 7.914569 1.075440 -7.624707 3.143370 2.315102 -4.722300 0.061806 -1.305780 1.620146 -0.859400 -0.000000 -36.376200
4.962863 17.374345 0.898830 -147.325868 -83.458521 156.343520 -10.492787 3.658974 2.376002 -4.760077 19.303840 -13.071354 -2.676863 -1.269954 -2.575997 0.431561 3.371924 1.052786 0.636499 0.000000 -29.723200 9.817122 -2.335239 4.853692 8.145249 0.659221 -7.634205 3.098959 2.305928 -4.976076 -0.044438 -1.885588 1.528239 -0.952800 -0.000000 -36.106400
4.954166 17.375218 0.890905 -135.151647 -84.587568 144.348706 -10.185161 3.488275 2.454180 -4.621372 18.541273 -13.229186 -2.673641 -1.373771 -2.598917 0.355181 2.985705 1.266118 0.616800 -0.000001 -29.885300 10.097033 -2.506200 4.872520 8.401806 0.212336 -7.838863 3.030448 2.228076 -4.950089 -0.172257 -2.525420 1.232143 -1.048900 0.000000 -35.824400
4.946919 17.376243 0.882647 -113.838818 -85.881359 123.222167 -10.094478 3.157244 2.473517 -4.566149 17.709108 -13.369184 -2.670048 -1.531345 -2.588674 0.253443 2.544173 1.532993 0.597200 -0.000001 -30.040799 10.172689 -2.836195 4.905791 8.571727 -0.292016 -8.073891 2.949127 2.104479 -4.996945 -0.329927 -3.228992 0.903132 -1.145500 0.000000 -35.539400
4.941204 17.377442 0.874093 -81.717775 -87.062363 91.284262 -10.607334 2.795987 2.508256 -4.776390 16.888474 -13.526084 -2.657890 -1.660195 -2.601836 0.160103 2.132494 1.826601 0.574700 -0.000000 -30.193900 9.668679 -3.201869 4.888707 8.460623 -0.790818 -8.274918 2.891565 2.015666 -5.025798 -0.476305 -3.898416 0.560661 -1.244100 -0.000000 -35.236800
4.936517 17.378783 0.867277 -37.760468 -87.974742 47.522298 -11.843568 2.887135 2.979959 -5.152128 15.238439 -13.933083 -2.548485 -1.544476 -2.615044 0.193677 2.148450 1.906793 0.568700 -0.000000 -30.280900 8.437114 -3.147547 4.484831 8.237758 -2.197460 -8.417179 2.995473 2.168568 -4.725162 -0.451622 -4.063426 0.291740 -1.309200 0.000000 -34.900700
4.934461 17.380249 0.857976 -27.579594 -87.867017 37.504369 -11.975527 3.051103 3.167390 -5.264976 14.684335 -14.176980 -2.540119 -1.464972 -2.779875 0.193288 1.964397 2.098302 0.543000 -0.000000 -30.421100 8.292374 -2.968609 4.350043 8.206420 -2.446654 -8.504394 2.992218 2.258233 -4.541870 -0.482919 -4.492519 0.112927 -1.406599 -0.000000 -34.571899
4.934524 17.381849 0.848231 -21.199305 -87.471723 31.296748 -11.958511 3.166194 3.315212 -5.313061 14.129406 -14.412886 -2.538236 -1.410854 -2.912656 0.181057 1.743873 2.304420 0.514800 -0.000000 -30.553300 8.294405 -2.823142 4.232719 8.242609 -2.701022 -8.616638 2.973175 2.317437 -4.387514 -0.526186 -4.950963 -0.066150 -1.503100 0.000000 -34.225400
4.936894 17.383577 0.838024 -16.896902 -86.902582 27.173361 -11.884648 3.232702 3.426599 -5.335343 13.580209 -14.638909 -2.540330 -1.375788 -3.018975 0.159659 1.498109 2.524895 0.484400 -0.000001 -30.674700 8.353616 -2.711725 4.122663 8.303465 -2.959479 -8.742951 2.944052 2.353163 -4.257534 -0.578049 -5.423213 -0.247050 -1.597200 -0.000000 -33.855100
4.941554 17.385448 0.827397 -13.812364 -86.229000 24.274630 -11.792645 3.260965 3.507184 -5.348493 13.044756 -14.864359 -2.545407 -1.352410 -3.098735 0.131909 1.232516 2.754602 0.450900 -0.000000 -30.785400 8.431592 -2.624451 4.014263 8.372227 -3.210154 -8.883507 2.908299 2.371901 -4.133975 -0.634668 -5.907145 -0.433876 -1.691500 -0.000000 -33.460200
4.948682 17.387493 0.816351 -11.486467 -85.498230 22.136695 -11.697294 3.259534 3.559685 -5.359590 12.523048 -15.079130 -2.551755 -1.336200 -3.163372 0.101226 0.965431 2.993184 0.416500 -0.000000 -30.882999 8.514517 -2.552490 3.900820 8.437937 -3.454959 -9.026403 2.868673 2.378276 -4.019516 -0.692692 -6.384524 -0.620313 -1.782800 0.000000 -33.036900
4.958139 17.389745 0.804953 -9.660581 -84.731814 20.502581 -11.604672 3.234340 3.587347 -5.371529 12.017587 -15.289645 -2.559185 -1.324047 -3.211050 0.068809 0.698145 3.237065 0.380701 0.000000 -30.965700 8.595790 -2.490274 3.781486 8.499117 -3.684740 -9.175545 2.825629 2.374186 -3.898677 -0.750176 -6.862186 -0.810695 -1.874700 0.000000 -32.589400
4.970109 17.392284 0.793250 -8.174883 -83.946374 19.206761 -11.516638 3.189515 3.592064 -5.385631 11.524242 -15.487329 -2.566499 -1.314285 -3.249436 0.036527 0.443063 3.487510 0.345500 0.000001 -31.032600 8.674000 -2.433764 3.652879 8.551850 -3.905648 -9.323118 2.780424 2.361420 -3.775978 -0.805808 -7.328818 -0.999303 -1.964800 -0.000000 -32.114700
4.984529 17.395179 0.781297 -6.931210 -83.150038 18.150035 -11.434005 3.128099 3.575929 -5.402537 11.042300 -15.671335 -2.573386 -1.305832 -3.280428 0.005068 0.203178 3.744206 0.311200 0.000000 -31.082100 8.748183 -2.380831 3.514668 8.595608 -4.116861 -9.468024 2.733287 2.340770 -3.647922 -0.858749 -7.786262 -1.184862 -2.054500 0.000000 -31.616900
5.001228 17.398533 0.769175 -5.862714 -82.348976 17.264529 -11.356957 3.052623 3.540773 -5.422808 10.570408 -15.838483 -2.579501 -1.298034 -3.306800 -0.024945 -0.017592 4.007922 0.278700 0.000000 -31.113200 8.818263 -2.330244 3.366365 8.629313 -4.321089 -9.607016 2.684654 2.312941 -3.515338 -0.908460 -8.232290 -1.363553 -2.144000 0.000000 -31.100500
5.020144 17.402416 0.756955 -4.928016 -81.548185 16.505265 -11.285652 2.965160 3.487986 -5.446713 10.110240 -15.985576 -2.584714 -1.290415 -3.330260 -0.053270 -0.218221 4.279115 0.248300 0.000000 -31.126300 8.884269 -2.281443 3.207654 8.652669 -4.523848 -9.735222 2.635337 2.278833 -3.383343 -0.954753 -8.662258 -1.529862 -2.232100 -0.000000 -30.566800
5.041112 17.406904 0.744664 -4.102898 -80.754050 15.847365 -11.220435 2.866999 3.419132 -5.473961 9.663448 -16.113711 -2.588887 -1.282829 -3.351860 -0.079592 -0.396573 4.557094 0.220400 -0.000001 -31.117600 8.945419 -2.234395 3.041464 8.666028 -4.715601 -9.854194 2.584880 2.238630 -3.250066 -0.998232 -9.084945 -1.679656 -2.322200 0.000000 -30.037800
5.063884 17.412033 0.732324 -3.363877 -79.972979 15.263527 -11.161391 2.760101 3.334663 -5.505155 9.236472 -16.217938 -2.592308 -1.274967 -3.371549 -0.104084 -0.554975 4.841731 0.194800 -0.000001 -31.090499 9.002380 -2.189412 2.866676 8.669030 -4.910086 -9.954503 2.535114 2.193756 -3.128372 -1.039159 -9.484484 -1.804560 -2.409500 0.000000 -29.508700
5.088215 17.417796 0.719962 -2.698096 -79.212563 14.737101 -11.108778 2.645652 3.234956 -5.539726 8.836529 -16.296207 -2.595191 -1.266739 -3.388899 -0.126853 -0.695144 5.131053 0.171501 -0.000000 -31.046300 9.055142 -2.147078 2.684444 8.662074 -5.109418 -10.031381 2.486894 2.144899 -3.024071 -1.077814 -9.854665 -1.898911 -2.492300 0.000000 -28.987900
5.113632 17.424139 0.707640 -2.108798 -78.482953 14.277391 -11.063169 2.524280 3.122699 -5.576977 8.470391 -16.360887 -2.597985 -1.258827 -3.399492 -0.147882 -0.816905 5.419502 0.150600 0.000000 -30.981800 9.102095 -2.109288 2.503469 8.648872 -5.292941 -10.093649 2.440119 2.093350 -2.941544 -1.116655 -10.206936 -1.956528 -2.574001 -0.000000 -28.504000
5.139766 17.430935 0.695243 -1.575735 -77.791972 13.853968 -11.024207 2.397800 2.996613 -5.616112 8.147480 -16.395992 -2.600831 -1.250966 -3.405400 -0.167412 -0.922867 5.706472 0.131800 -0.000001 -30.906499 9.145263 -2.076652 2.319810 8.627266 -5.483805 -10.124586 2.396962 2.039579 -2.890421 -1.154448 -10.512123 -1.974775 -2.645599 0.000000 -28.043700
5.166012 17.438055 0.682949 -1.115806 -77.149997 13.494008 -10.992098 2.266593 2.862079 -5.656011 7.875265 -16.427119 -2.604584 -1.244495 -3.396862 -0.185701 -1.014622 5.981682 0.115400 -0.000000 -30.815900 9.182510 -2.052431 2.148051 8.604541 -5.650243 -10.142649 2.357149 1.985615 -2.875897 -1.194733 -10.788681 -1.948400 -2.712000 -0.000000 -27.639500
5.192148 17.445264 0.670577 -0.707911 -76.564314 13.158119 -10.965758 2.133041 2.718871 -5.694630 7.658572 -16.426841 -2.608658 -1.239341 -3.382817 -0.202533 -1.089089 6.246823 0.102200 -0.000000 -30.723000 9.216900 -2.037216 1.983626 8.575713 -5.816895 -10.128204 2.322017 1.930466 -2.897519 -1.234576 -11.006468 -1.882168 -2.764100 -0.000000 -27.279600
5.217150 17.452400 0.658386 -0.371144 -76.043669 12.881126 -10.944472 1.999216 2.576676 -5.731551 7.505082 -16.431097 -2.614546 -1.237217 -3.348613 -0.218709 -1.152524 6.488814 0.091400 0.000000 -30.624300 9.246886 -2.035418 1.845664 8.550546 -5.951785 -10.105251 2.291628 1.877494 -2.963179 -1.277656 -11.183766 -1.773165 -2.806300 0.000000 -26.988200
5.240879 17.459197 0.646205 -0.087978 -75.596793 12.622813 -10.926501 1.869610 2.439494 -5.764623 7.412900 -16.409357 -2.621082 -1.238127 -3.308541 -0.233651 -1.197881 6.711191 0.084800 -0.000000 -30.531300 9.275721 -2.047274 1.731972 8.522777 -6.074295 -10.057234 2.266295 1.825342 -3.062483 -1.319611 -11.298803 -1.631807 -2.832500 0.000000 -26.758600
